<?xml version="1.0" standalone="no"?>
<!DOCTYPE svg PUBLIC "-//W3C//DTD SVG 20010904//EN"
 "http://www.w3.org/TR/2001/REC-SVG-20010904/DTD/svg10.dtd">
<svg version="1.0" xmlns="http://www.w3.org/2000/svg"
 width="150.000000pt" height="27.000000pt" viewBox="0 0 300.000000 54.000000"
 preserveAspectRatio="xMidYMid meet">
<metadata>
Created by potrace 1.10, written by Peter Selinger 2001-2011
</metadata>
<g transform="translate(0.000000,54.000000) scale(0.100000,-0.100000)"
fill="#fff" stroke="none">
<path d="M301 529 c-70 -12 -132 -47 -150 -84 -12 -25 -12 -35 0 -69 14 -42
19 -46 169 -138 33 -21 63 -45 66 -53 8 -19 -21 -53 -56 -67 -47 -19 -183 -35
-224 -26 -43 10 -50 6 -60 -34 -5 -21 -1 -30 16 -42 31 -22 39 -20 32 9 -6 25
-6 25 66 25 73 0 73 0 55 -20 -10 -11 -16 -22 -14 -25 3 -2 42 9 87 24 130 45
185 97 185 175 0 57 -31 100 -96 132 -68 34 -117 72 -117 89 0 40 112 47 192
13 54 -23 80 -18 86 16 5 23 -33 63 -66 71 -15 3 -36 9 -47 12 -19 5 -19 5 -2
-14 25 -29 21 -35 -20 -28 -63 11 -67 13 -53 30 7 8 11 14 9 14 -2 -1 -28 -5
-58 -10z m-68 -92 c-7 -43 19 -75 96 -115 33 -18 71 -46 85 -63 26 -31 35 -82
16 -94 -5 -3 -10 2 -10 11 0 32 -47 79 -120 119 -72 40 -120 84 -120 111 0 14
43 64 54 64 3 0 2 -15 -1 -33z"/>
<path d="M1930 530 c-105 -18 -160 -60 -160 -122 0 -51 33 -85 145 -152 92
-54 111 -80 85 -111 -29 -34 -204 -69 -273 -53 -45 10 -57 1 -57 -44 0 -17 7
-31 19 -38 29 -15 34 -13 27 15 -6 25 -6 25 64 25 l70 0 -15 -24 -16 -24 43 9
c24 6 77 27 118 47 84 41 120 84 120 139 0 67 -38 113 -136 161 -33 17 -67 38
-74 47 -13 15 -12 20 9 36 33 27 118 25 183 -3 55 -23 80 -18 86 19 4 25 -44
62 -94 73 -40 9 -42 6 -10 -23 l24 -23 -59 10 c-51 8 -60 13 -56 28 3 10 4 17
4 17 -1 -1 -22 -5 -47 -9z m-65 -77 c-19 -45 10 -90 82 -128 65 -33 101 -65
112 -97 14 -41 14 -48 -4 -48 -8 0 -15 6 -15 14 0 20 -57 67 -133 109 -96 54
-121 103 -77 147 25 25 45 26 35 3z"/>
<path d="M575 508 c-28 -87 -95 -377 -95 -415 0 -16 6 -23 20 -23 15 0 29 19
57 77 31 64 47 84 87 111 27 18 50 31 52 30 1 -2 -2 -39 -7 -82 -11 -89 -1
-136 34 -161 32 -22 53 -18 89 16 23 21 27 29 13 24 -57 -21 -60 -17 -57 72 4
90 -9 148 -38 163 -36 19 -68 11 -105 -26 -20 -20 -38 -34 -41 -32 -2 3 5 39
16 82 11 42 22 99 26 127 6 48 6 49 -20 49 -15 0 -28 -6 -31 -12z"/>
<path d="M2777 502 c2 -10 -14 -79 -36 -153 -61 -205 -74 -264 -66 -309 8 -46
30 -53 40 -12 3 15 29 87 56 160 100 267 104 298 38 321 -40 14 -38 14 -32 -7z"/>
<path d="M1034 355 c-8 -20 -24 -71 -35 -113 -18 -65 -27 -81 -57 -104 -35
-28 -72 -37 -72 -18 0 6 12 34 26 62 23 45 24 52 11 65 -21 21 -31 12 -52 -51
-15 -44 -17 -60 -7 -80 15 -34 51 -34 91 -1 l30 26 3 -33 c2 -25 8 -33 22 -33
13 0 31 23 60 78 25 48 54 87 75 102 57 41 60 36 54 -63 -5 -70 -2 -94 11
-120 21 -41 56 -50 98 -25 36 21 53 51 22 38 -59 -24 -58 -25 -50 62 13 165
-51 231 -144 147 -45 -41 -56 -40 -40 0 16 43 12 74 -10 86 -18 10 -22 7 -36
-25z"/>
<path d="M2129 331 c-13 -10 -21 -23 -17 -27 4 -4 14 -1 23 6 28 23 29 1 2
-87 -15 -49 -23 -91 -18 -96 15 -15 46 10 86 68 21 30 42 55 46 55 4 0 9 -19
11 -42 5 -67 33 -64 99 11 29 33 56 58 60 56 4 -3 1 -22 -7 -42 -18 -52 -18
-137 1 -153 21 -17 57 25 78 93 29 92 20 135 -34 152 -24 8 -58 -13 -107 -64
-30 -32 -34 -33 -29 -12 8 32 -8 68 -33 76 -16 5 -29 0 -49 -19 -35 -33 -39
-33 -43 7 -4 39 -33 47 -69 18z m338 -102 c-3 -23 -11 -47 -17 -53 -9 -8 -11
-1 -6 29 3 22 5 46 6 53 0 6 5 12 11 12 8 0 10 -14 6 -41z"/>
<path d="M902 315 c-16 -35 -16 -35 14 -35 22 0 25 4 22 27 -4 36 -22 39 -36
8z"/>
<path d="M2594 315 c-9 -35 8 -52 30 -29 21 20 17 48 -6 52 -12 2 -19 -5 -24
-23z"/>
<path d="M1383 283 c-16 -15 -35 -45 -42 -66 -11 -32 -10 -41 4 -63 34 -53
115 -53 165 1 28 30 22 31 -30 5 -47 -24 -73 -25 -91 -4 -10 13 -10 17 2 25 8
5 19 9 26 9 6 0 28 15 48 34 51 48 46 80 -11 84 -33 2 -46 -2 -71 -25z m87
-12 c0 -13 -59 -61 -76 -61 -22 0 -16 16 17 44 31 26 59 34 59 17z"/>
<path d="M2872 294 c-25 -17 -62 -84 -62 -112 0 -24 37 -59 72 -67 28 -7 88
15 109 41 20 24 3 26 -32 5 -40 -25 -72 -27 -89 -6 -15 18 -17 15 36 44 50 28
81 75 64 96 -16 20 -70 19 -98 -1z m68 -28 c0 -15 -50 -56 -69 -56 -24 0 -2
39 34 58 27 15 35 15 35 -2z"/>
<path d="M2550 204 c-24 -59 -19 -97 16 -111 20 -8 82 24 95 49 13 25 2 23
-33 -7 -57 -48 -78 -18 -37 55 12 21 19 45 16 54 -12 31 -35 15 -57 -40z"/>
</g>
</svg>
